<?xml version="1.0" standalone="no"?>
<!DOCTYPE svg PUBLIC "-//W3C//DTD SVG 20010904//EN"
 "http://www.w3.org/TR/2001/REC-SVG-20010904/DTD/svg10.dtd">
<svg version="1.0" xmlns="http://www.w3.org/2000/svg"
 width="360.000000pt" height="360.000000pt" viewBox="0 0 360.000000 360.000000"
 preserveAspectRatio="xMidYMid meet">
<metadata>
Created by potrace 1.14, written by Peter Selinger 2001-2017
</metadata>
<g transform="translate(0.000000,360.000000) scale(0.100000,-0.100000)"
fill="#000000" stroke="none">
<path d="M1784 3354 c-4 -10 -22 -55 -40 -99 -46 -114 -131 -339 -241 -640
-52 -143 -107 -283 -123 -311 l-28 -50 139 -204 c158 -232 194 -277 91 -115
-76 120 -119 201 -103 191 6 -4 27 -33 48 -64 21 -31 41 -58 45 -60 5 -2 8
-10 8 -17 0 -7 16 -37 35 -66 19 -30 35 -57 35 -62 0 -4 5 -5 10 -2 6 4 9 2 8
-3 -4 -15 72 -113 82 -107 24 15 2 360 -31 487 -6 24 -13 54 -16 68 -2 14 -11
39 -18 55 -33 75 -61 173 -60 210 2 44 17 89 35 100 6 4 9 13 6 20 -3 8 9 20
30 30 19 9 34 20 34 25 0 6 8 10 18 10 17 0 20 -12 25 -122 4 -66 8 -158 9
-202 2 -45 5 149 8 429 3 281 4 512 3 514 -2 2 -6 -5 -9 -15z"/>
<path d="M1811 3224 c1 -82 5 -207 8 -279 l8 -130 1 113 c1 71 6 112 13 112 5
0 8 4 5 9 -4 5 10 5 31 1 20 -5 40 -7 44 -5 4 3 12 -9 19 -25 7 -17 15 -29 17
-27 4 5 -133 366 -142 375 -3 3 -4 -62 -4 -144z"/>
<path d="M1960 2975 c0 -5 5 -17 10 -25 5 -8 10 -10 10 -5 0 6 -5 17 -10 25
-5 8 -10 11 -10 5z"/>
<path d="M2085 2619 c6 -30 2 -41 -27 -76 -60 -74 -66 -85 -107 -167 -50 -99
-76 -200 -96 -365 -8 -69 -17 -141 -20 -158 -2 -18 0 -33 5 -33 5 0 7 -14 3
-32 -5 -24 -3 -29 7 -23 10 6 12 4 7 -8 -3 -10 -5 -17 -3 -17 8 0 80 105 78
113 -1 4 3 7 10 7 6 0 9 3 5 6 -3 3 3 16 14 28 10 12 41 58 69 101 27 44 53
85 58 91 5 6 21 28 35 50 13 21 37 50 52 64 l27 25 -29 -50 c-17 -27 -49 -80
-71 -117 -23 -38 -40 -68 -38 -68 3 0 45 58 95 130 l90 129 -29 53 c-15 29
-52 118 -80 198 -56 155 -66 175 -55 119z"/>
<path d="M315 2199 c-72 -5 -144 -10 -161 -11 -30 -3 -25 -8 115 -124 80 -66
256 -208 391 -314 358 -282 380 -300 397 -333 21 -42 15 -75 -62 -342 -36
-125 -64 -229 -62 -231 2 -2 18 47 37 109 46 155 54 167 107 167 24 0 43 4 43
8 0 10 117 52 143 52 9 0 17 3 17 8 0 4 18 13 39 19 22 7 59 27 83 44 24 16
54 37 68 46 14 9 37 31 50 49 14 18 33 35 43 37 10 3 15 11 11 20 -3 10 2 18
15 22 13 4 18 11 14 22 -5 12 -3 14 6 8 10 -5 11 -2 6 14 -5 16 -3 20 9 15 10
-4 14 0 13 14 -1 18 -4 19 -57 6 -55 -13 -107 -27 -280 -77 -91 -27 -160 -41
-160 -33 0 5 11 8 245 79 215 65 343 99 361 95 18 -3 -74 -129 -370 -507 -105
-134 -215 -276 -245 -315 -29 -39 -57 -72 -62 -74 -5 -2 -9 -8 -9 -13 0 -11
-20 -36 -79 -101 -44 -48 -44 -48 -59 -26 -9 12 -24 30 -34 40 -22 22 -22 18
2 103 23 79 25 113 4 45 -30 -92 -135 -492 -131 -496 2 -3 48 24 101 58 53 35
118 76 144 92 173 107 451 300 445 309 -3 6 -1 7 5 3 10 -6 92 40 92 51 0 2
-5 1 -12 -3 -7 -4 -8 -3 -4 5 4 6 12 8 18 5 6 -4 17 1 25 11 7 11 13 16 13 12
0 -4 11 0 25 9 14 9 22 21 18 27 -3 6 -1 7 5 3 6 -4 23 1 37 10 21 14 23 19
13 33 -11 14 -11 14 4 3 14 -11 22 -11 47 2 38 20 74 20 113 0 16 -9 27 -11
24 -5 -4 7 -1 9 8 5 9 -3 14 -10 13 -14 -4 -14 920 -636 930 -626 2 2 -13 65
-34 140 -20 75 -39 133 -42 128 -3 -5 -19 -8 -34 -7 -15 1 -30 -2 -33 -6 -2
-4 4 -6 14 -4 11 2 18 -3 18 -14 0 -10 -6 -18 -12 -18 -7 0 -10 7 -6 15 3 9 1
13 -5 9 -12 -8 -49 37 -225 271 -78 103 -194 255 -258 337 -147 188 -343 453
-359 483 -19 37 -41 41 389 -85 140 -41 260 -79 265 -85 7 -6 2 -8 -15 -4 -14
3 -43 8 -65 11 -48 7 -69 14 -205 59 -58 19 -130 39 -160 44 -30 5 -62 11 -70
13 -20 5 -14 -29 8 -54 10 -10 40 -44 67 -76 28 -33 55 -60 60 -60 6 -1 21
-11 35 -24 14 -12 45 -29 70 -37 25 -7 51 -18 58 -23 6 -5 12 -6 12 -3 0 4 9
2 20 -4 17 -9 55 -16 209 -36 31 -4 33 -3 27 18 -3 13 -13 56 -22 97 -27 118
-69 74 491 512 264 206 443 352 444 360 1 3 -43 9 -96 12 -123 8 -383 16 -325
10 23 -2 40 -8 37 -13 -10 -16 164 -55 208 -46 67 13 -3 -15 -213 -85 -118
-39 -359 -123 -535 -186 -499 -179 -686 -243 -705 -243 -10 0 -20 10 -24 23
-3 12 -6 127 -6 255 0 148 -4 232 -10 232 -6 0 -10 -81 -10 -222 0 -254 -7
-293 -52 -284 -25 5 -407 142 -758 271 -298 110 -611 214 -627 208 -11 -4 -14
-3 -9 5 5 8 0 12 -14 12 -12 0 -27 6 -34 13 -11 10 -1 12 53 10 36 -1 68 2 71
7 3 5 37 15 75 23 41 9 59 16 45 18 -14 1 4 5 40 9 60 6 57 7 -35 7 -55 0
-158 -4 -230 -8z m1586 -753 c45 -60 77 -106 72 -103 -5 3 -36 41 -69 84 -62
82 -92 112 -111 113 -6 0 -26 -19 -45 -41 -18 -23 -38 -46 -43 -53 -6 -6 -61
-77 -123 -158 -62 -82 -115 -148 -118 -148 -7 0 270 365 304 402 15 16 30 24
38 20 7 -4 49 -56 95 -116z m104 -136 c10 -11 16 -20 13 -20 -3 0 -13 9 -23
20 -10 11 -16 20 -13 20 3 0 13 -9 23 -20z m152 -202 c224 -298 363 -488 358
-488 -5 0 -256 332 -393 520 -47 63 -89 121 -94 128 -6 6 -8 12 -5 12 2 0 63
-78 134 -172z m-729 -24 c-18 -25 -37 -48 -43 -52 -5 -3 3 12 19 34 45 60 48
64 53 64 2 0 -11 -21 -29 -46z m-127 -169 c-45 -58 -117 -152 -162 -210 -44
-58 -82 -105 -85 -105 -9 0 309 419 319 419 5 1 -28 -46 -72 -104z m1240 -322
c13 -16 12 -17 -3 -4 -17 13 -22 21 -14 21 2 0 10 -8 17 -17z m30 -40 c13 -16
12 -17 -3 -4 -10 7 -18 15 -18 17 0 8 8 3 21 -13z"/>
<path d="M2898 2203 c12 -2 32 -2 45 0 12 2 2 4 -23 4 -25 0 -35 -2 -22 -4z"/>
<path d="M2019 1933 c-13 -16 -12 -17 4 -4 9 7 17 15 17 17 0 8 -8 3 -21 -13z"/>
<path d="M1660 1800 c6 -11 13 -20 16 -20 2 0 0 9 -6 20 -6 11 -13 20 -16 20
-2 0 0 -9 6 -20z"/>
<path d="M1720 1706 c0 -2 8 -10 18 -17 15 -13 16 -12 3 4 -13 16 -21 21 -21
13z"/>
<path d="M916 804 c-4 -14 -5 -28 -3 -31 3 -2 8 8 11 23 4 14 5 28 3 31 -3 2
-8 -8 -11 -23z"/>
</g>
</svg>
